<svg id="visual" viewBox="0 0 1280 720" width="1280" height="720" xmlns="http://www.w3.org/2000/svg" xmlns:xlink="http://www.w3.org/1999/xlink" version="1.1"><rect x="0" y="0" width="1280" height="720" fill="#F8F8F8"></rect><defs><linearGradient id="grad1_0" x1="43.8%" y1="0%" x2="100%" y2="100%"><stop offset="14.444444444444446%" stop-color="#93b4fd" stop-opacity="1"></stop><stop offset="85.55555555555554%" stop-color="#93b4fd" stop-opacity="1"></stop></linearGradient></defs><defs><linearGradient id="grad1_1" x1="43.8%" y1="0%" x2="100%" y2="100%"><stop offset="14.444444444444446%" stop-color="#93b4fd" stop-opacity="1"></stop><stop offset="85.55555555555554%" stop-color="#b8cafc" stop-opacity="1"></stop></linearGradient></defs><defs><linearGradient id="grad1_2" x1="43.8%" y1="0%" x2="100%" y2="100%"><stop offset="14.444444444444446%" stop-color="#d9e1fa" stop-opacity="1"></stop><stop offset="85.55555555555554%" stop-color="#b8cafc" stop-opacity="1"></stop></linearGradient></defs><defs><linearGradient id="grad1_3" x1="43.8%" y1="0%" x2="100%" y2="100%"><stop offset="14.444444444444446%" stop-color="#d9e1fa" stop-opacity="1"></stop><stop offset="85.55555555555554%" stop-color="#f8f8f8" stop-opacity="1"></stop></linearGradient></defs><defs><linearGradient id="grad2_0" x1="0%" y1="0%" x2="56.3%" y2="100%"><stop offset="14.444444444444446%" stop-color="#93b4fd" stop-opacity="1"></stop><stop offset="85.55555555555554%" stop-color="#93b4fd" stop-opacity="1"></stop></linearGradient></defs><defs><linearGradient id="grad2_1" x1="0%" y1="0%" x2="56.3%" y2="100%"><stop offset="14.444444444444446%" stop-color="#b8cafc" stop-opacity="1"></stop><stop offset="85.55555555555554%" stop-color="#93b4fd" stop-opacity="1"></stop></linearGradient></defs><defs><linearGradient id="grad2_2" x1="0%" y1="0%" x2="56.3%" y2="100%"><stop offset="14.444444444444446%" stop-color="#b8cafc" stop-opacity="1"></stop><stop offset="85.55555555555554%" stop-color="#d9e1fa" stop-opacity="1"></stop></linearGradient></defs><defs><linearGradient id="grad2_3" x1="0%" y1="0%" x2="56.3%" y2="100%"><stop offset="14.444444444444446%" stop-color="#f8f8f8" stop-opacity="1"></stop><stop offset="85.55555555555554%" stop-color="#d9e1fa" stop-opacity="1"></stop></linearGradient></defs><g transform="translate(1280, 0)"><path d="M0 468C-42.1 467.7 -84.2 467.4 -121.1 452.1C-158.1 436.7 -189.9 406.4 -218 377.6C-246.1 348.8 -270.5 321.4 -292.7 292.7C-315 264.1 -335.2 234 -352.5 203.5C-369.7 173 -384 141.9 -402.8 107.9C-421.6 73.9 -444.8 37 -468 0L0 0Z" fill="#e9ecf9"></path><path d="M0 351C-31.6 350.8 -63.1 350.5 -90.8 339C-118.6 327.6 -142.4 304.8 -163.5 283.2C-184.6 261.6 -202.8 241.1 -219.6 219.6C-236.3 198 -251.4 175.5 -264.4 152.6C-277.3 129.7 -288 106.4 -302.1 80.9C-316.2 55.4 -333.6 27.7 -351 0L0 0Z" fill="#c9d5fb"></path><path d="M0 234C-21 233.8 -42.1 233.7 -60.6 226C-79 218.4 -95 203.2 -109 188.8C-123 174.4 -135.2 160.7 -146.4 146.4C-157.5 132 -167.6 117 -176.2 101.8C-184.9 86.5 -192 71 -201.4 54C-210.8 37 -222.4 18.5 -234 0L0 0Z" fill="#a6bffc"></path><path d="M0 117C-10.5 116.9 -21 116.8 -30.3 113C-39.5 109.2 -47.5 101.6 -54.5 94.4C-61.5 87.2 -67.6 80.4 -73.2 73.2C-78.8 66 -83.8 58.5 -88.1 50.9C-92.4 43.2 -96 35.5 -100.7 27C-105.4 18.5 -111.2 9.2 -117 0L0 0Z" fill="#93b4fd"></path></g><g transform="translate(0, 720)"><path d="M0 -468C38.9 -450.6 77.9 -433.1 110.8 -413.4C143.7 -393.7 170.5 -371.7 208.5 -361.1C246.5 -350.6 295.5 -351.5 330.9 -330.9C366.3 -310.4 388 -268.3 392.3 -226.5C396.6 -184.7 383.4 -143.1 393.1 -105.3C402.8 -67.6 435.4 -33.8 468 0L0 0Z" fill="#e9ecf9"></path><path d="M0 -351C29.2 -337.9 58.4 -324.9 83.1 -310.1C107.8 -295.3 127.9 -278.8 156.4 -270.8C184.8 -262.9 221.7 -263.6 248.2 -248.2C274.7 -232.8 291 -201.2 294.2 -169.9C297.4 -138.5 287.6 -107.3 294.8 -79C302.1 -50.7 326.6 -25.4 351 0L0 0Z" fill="#c9d5fb"></path><path d="M0 -234C19.5 -225.3 38.9 -216.6 55.4 -206.7C71.8 -196.8 85.3 -185.8 104.2 -180.6C123.2 -175.3 147.8 -175.7 165.5 -165.5C183.2 -155.2 194 -134.2 196.2 -113.3C198.3 -92.3 191.7 -71.5 196.6 -52.7C201.4 -33.8 217.7 -16.9 234 0L0 0Z" fill="#a6bffc"></path><path d="M0 -117C9.7 -112.6 19.5 -108.3 27.7 -103.4C35.9 -98.4 42.6 -92.9 52.1 -90.3C61.6 -87.6 73.9 -87.9 82.7 -82.7C91.6 -77.6 97 -67.1 98.1 -56.6C99.1 -46.2 95.9 -35.8 98.3 -26.3C100.7 -16.9 108.9 -8.5 117 0L0 0Z" fill="#93b4fd"></path></g></svg>